<svg width="184" height="23" viewBox="0 0 184 23" fill="none" xmlns="http://www.w3.org/2000/svg">
<path d="M13.1562 12.3047C13.0234 13.4844 12.6211 14.5312 11.9492 15.4453C11.2773 16.3516 10.4023 17.0508 9.32422 17.543C8.24609 18.0273 7.08203 18.2578 5.83203 18.2344C4.70703 18.2109 3.72656 17.9531 2.89062 17.4609C2.05469 16.9609 1.39453 16.2422 0.910156 15.3047C0.433594 14.3594 0.164062 13.2734 0.101562 12.0469C0.046875 11.0859 0.144531 9.89062 0.394531 8.46094C0.652344 7.03125 1.10547 5.76172 1.75391 4.65234C2.41016 3.54297 3.1875 2.66406 4.08594 2.01562C5.35156 1.10938 6.79688 0.671875 8.42188 0.703125C10.1875 0.734375 11.5859 1.28125 12.6172 2.34375C13.6562 3.39844 14.2266 4.86719 14.3281 6.75L10.9062 6.73828C10.9062 5.66016 10.6914 4.87109 10.2617 4.37109C9.83203 3.87109 9.16406 3.60547 8.25781 3.57422C7.08594 3.53516 6.12109 3.95312 5.36328 4.82812C4.61328 5.70312 4.10938 6.98047 3.85156 8.66016C3.60156 10.293 3.49219 11.5156 3.52344 12.3281C3.5625 13.3594 3.79297 14.1211 4.21484 14.6133C4.63672 15.0977 5.22656 15.3516 5.98438 15.375C7.03125 15.4141 7.86719 15.168 8.49219 14.6367C9.125 14.0977 9.54297 13.3281 9.74609 12.3281L13.1562 12.3047ZM21.7227 18C21.6211 17.6797 21.5781 17.2969 21.5938 16.8516C20.6406 17.8047 19.5625 18.2656 18.3594 18.2344C17.25 18.2188 16.3281 17.8594 15.5938 17.1562C14.8672 16.4453 14.5273 15.5703 14.5742 14.5312C14.6289 13.1484 15.207 12.0898 16.3086 11.3555C17.418 10.6133 18.9023 10.2422 20.7617 10.2422L22.3086 10.2656L22.4727 9.50391C22.5195 9.24609 22.5312 9 22.5078 8.76562C22.4688 8.39844 22.3281 8.11328 22.0859 7.91016C21.8516 7.69922 21.5391 7.58984 21.1484 7.58203C20.6328 7.56641 20.1953 7.69531 19.8359 7.96875C19.4766 8.23438 19.2461 8.62109 19.1445 9.12891L15.8281 9.14062C15.8828 7.92969 16.4375 6.94922 17.4922 6.19922C18.5547 5.44141 19.8633 5.07031 21.418 5.08594C22.8555 5.11719 23.9805 5.54688 24.793 6.375C25.6055 7.19531 25.9453 8.25391 25.8125 9.55078L24.8398 15.6211L24.7812 16.3711C24.7656 16.9258 24.832 17.3945 24.9805 17.7773L24.9688 18H21.7227ZM19.1797 15.668C20.1328 15.6992 20.9648 15.2852 21.6758 14.4258L22.0859 12.2344L20.9375 12.2227C19.7188 12.2539 18.8398 12.625 18.3008 13.3359C18.1055 13.5938 17.9844 13.9102 17.9375 14.2852C17.875 14.707 17.9609 15.043 18.1953 15.293C18.4375 15.5352 18.7656 15.6602 19.1797 15.668ZM32.2695 5.30859L32 6.75C33.0234 5.60938 34.2617 5.05469 35.7148 5.08594C36.4961 5.10156 37.1445 5.28125 37.6602 5.625C38.1758 5.96875 38.5234 6.43359 38.7031 7.01953C39.8203 5.69922 41.1328 5.05469 42.6406 5.08594C43.8047 5.10938 44.6797 5.50781 45.2656 6.28125C45.8594 7.05469 46.1094 8.17188 46.0156 9.63281L45.9922 9.92578L44.6445 18H41.3281L42.6758 9.90234C42.707 9.61328 42.7188 9.34375 42.7109 9.09375C42.6562 8.27344 42.1875 7.85156 41.3047 7.82812C40.3984 7.82812 39.6211 8.3125 38.9727 9.28125L38.9375 9.55078L37.4609 18H34.1562L35.5039 9.92578C35.5352 9.63672 35.5469 9.36719 35.5391 9.11719C35.4844 8.28906 35.0195 7.86328 34.1445 7.83984C33.3086 7.81641 32.5547 8.21094 31.8828 9.02344L30.3008 18H26.9961L29.1875 5.32031L32.2695 5.30859ZM59.4453 11.6953C59.2812 13.0234 58.9336 14.2031 58.4023 15.2344C57.8711 16.2656 57.2109 17.0312 56.4219 17.5312C55.6328 18.0312 54.7578 18.2695 53.7969 18.2461C52.5703 18.2148 51.6016 17.7578 50.8906 16.875L49.7305 22.875H46.4258L49.4609 5.32031L52.5078 5.30859L52.2852 6.58594C53.1992 5.55469 54.2773 5.05469 55.5195 5.08594C56.7617 5.11719 57.7266 5.57031 58.4141 6.44531C59.1016 7.3125 59.4688 8.49219 59.5156 9.98438C59.5312 10.4688 59.5078 11.0391 59.4453 11.6953ZM56.1641 11.4492L56.2344 10.3242C56.25 9.56641 56.1094 8.96484 55.8125 8.51953C55.5234 8.07422 55.0977 7.84375 54.5352 7.82812C53.5742 7.79688 52.7812 8.20312 52.1562 9.04688L51.207 14.2734C51.4961 15.0625 52.1172 15.4727 53.0703 15.5039C53.8672 15.5273 54.5312 15.2188 55.0625 14.5781C55.5938 13.9375 55.9609 12.8945 56.1641 11.4492ZM68.3398 16.6875C67.4023 17.7422 66.2383 18.2578 64.8477 18.2344C63.6289 18.2188 62.707 17.7812 62.082 16.9219C61.457 16.0625 61.2148 14.9297 61.3555 13.5234L62.7266 5.32031H66.0312L64.6367 13.5586C64.6055 13.8164 64.6016 14.0586 64.625 14.2852C64.7031 15.0664 65.1367 15.4688 65.9258 15.4922C66.9492 15.5234 67.7969 15.1289 68.4688 14.3086L70.0508 5.32031H73.3789L71.1758 18H68.0938L68.3398 16.6875ZM80.9844 14.4258C81.1094 13.8008 80.6758 13.3477 79.6836 13.0664L78.6172 12.7969C76.0938 12.1016 74.8672 10.875 74.9375 9.11719C74.9766 7.92188 75.5039 6.94922 76.5195 6.19922C77.543 5.44141 78.7734 5.07031 80.2109 5.08594C81.6406 5.10156 82.7969 5.48047 83.6797 6.22266C84.5625 6.96484 85.0117 7.95312 85.0273 9.1875L81.7461 9.17578C81.7617 8.08984 81.2227 7.53906 80.1289 7.52344C79.6133 7.52344 79.1641 7.65234 78.7812 7.91016C78.4062 8.16797 78.1758 8.51562 78.0898 8.95312C77.9727 9.57812 78.4453 10.0195 79.5078 10.2773L79.9766 10.3828C81.0547 10.6406 81.8789 10.9375 82.4492 11.2734C83.0195 11.6016 83.457 12.0117 83.7617 12.5039C84.0742 12.9961 84.2188 13.5859 84.1953 14.2734C84.1719 15.0781 83.9102 15.7812 83.4102 16.3828C82.918 16.9844 82.2383 17.4492 81.3711 17.7773C80.5117 18.1055 79.6055 18.2578 78.6523 18.2344C77.2461 18.2188 76.0742 17.8164 75.1367 17.0273C74.1992 16.2305 73.7227 15.2031 73.707 13.9453L76.8242 13.9688C76.8555 15.1797 77.5039 15.793 78.7695 15.8086C79.3789 15.8086 79.8789 15.6836 80.2695 15.4336C80.668 15.1836 80.9062 14.8477 80.9844 14.4258Z" fill="#5E9C76"/>
<path d="M105.359 18H102.031L97.2852 6.62109L95.3047 18H91.8711L94.8359 0.9375H98.1523L102.91 12.3398L104.891 0.9375H108.312L105.359 18ZM116.082 16.6875C115.145 17.7422 113.98 18.2578 112.59 18.2344C111.371 18.2188 110.449 17.7812 109.824 16.9219C109.199 16.0625 108.957 14.9297 109.098 13.5234L110.469 5.32031H113.773L112.379 13.5586C112.348 13.8164 112.344 14.0586 112.367 14.2852C112.445 15.0664 112.879 15.4688 113.668 15.4922C114.691 15.5234 115.539 15.1289 116.211 14.3086L117.793 5.32031H121.121L118.918 18H115.836L116.082 16.6875ZM128.082 2.20312L127.531 5.32031H129.641L129.207 7.80469H127.098L126.02 14.1562C125.973 14.5547 126.004 14.8594 126.113 15.0703C126.223 15.2812 126.488 15.3945 126.91 15.4102C127.035 15.418 127.371 15.3984 127.918 15.3516L127.684 17.9414C127.098 18.1367 126.465 18.2266 125.785 18.2109C124.699 18.1953 123.891 17.8555 123.359 17.1914C122.828 16.5273 122.609 15.6289 122.703 14.4961L123.793 7.80469H122L122.434 5.32031H124.227L124.766 2.20312H128.082ZM138.055 8.49609C137.602 8.41797 137.23 8.37891 136.941 8.37891C135.762 8.34766 134.828 8.78906 134.141 9.70312L132.676 18H129.371L131.574 5.32031L134.68 5.30859L134.375 6.85547C135.172 5.66016 136.156 5.0625 137.328 5.0625C137.656 5.0625 138.039 5.11719 138.477 5.22656L138.055 8.49609ZM141.488 18H138.16L140.363 5.32031H143.691L141.488 18ZM140.75 2.09766C140.734 1.57422 140.906 1.14062 141.266 0.796875C141.625 0.453125 142.059 0.28125 142.566 0.28125C143.066 0.265625 143.5 0.417969 143.867 0.738281C144.234 1.05859 144.426 1.47266 144.441 1.98047C144.457 2.46484 144.293 2.88672 143.949 3.24609C143.613 3.60547 143.172 3.79297 142.625 3.80859C142.133 3.82422 141.699 3.67578 141.324 3.36328C140.957 3.05078 140.766 2.62891 140.75 2.09766ZM151.004 2.20312L150.453 5.32031H152.562L152.129 7.80469H150.02L148.941 14.1562C148.895 14.5547 148.926 14.8594 149.035 15.0703C149.145 15.2812 149.41 15.3945 149.832 15.4102C149.957 15.418 150.293 15.3984 150.84 15.3516L150.605 17.9414C150.02 18.1367 149.387 18.2266 148.707 18.2109C147.621 18.1953 146.812 17.8555 146.281 17.1914C145.75 16.5273 145.531 15.6289 145.625 14.4961L146.715 7.80469H144.922L145.355 5.32031H147.148L147.688 2.20312H151.004ZM155.785 18H152.457L154.66 5.32031H157.988L155.785 18ZM155.047 2.09766C155.031 1.57422 155.203 1.14062 155.562 0.796875C155.922 0.453125 156.355 0.28125 156.863 0.28125C157.363 0.265625 157.797 0.417969 158.164 0.738281C158.531 1.05859 158.723 1.47266 158.738 1.98047C158.754 2.46484 158.59 2.88672 158.246 3.24609C157.91 3.60547 157.469 3.79297 156.922 3.80859C156.43 3.82422 155.996 3.67578 155.621 3.36328C155.254 3.05078 155.062 2.62891 155.047 2.09766ZM165.852 5.08594C166.969 5.10156 167.93 5.39062 168.734 5.95312C169.547 6.50781 170.141 7.27734 170.516 8.26172C170.898 9.23828 171.035 10.3242 170.926 11.5195C170.746 13.5352 170.043 15.168 168.816 16.418C167.598 17.6602 166.09 18.2656 164.293 18.2344C163.191 18.2188 162.238 17.9375 161.434 17.3906C160.629 16.8359 160.035 16.0703 159.652 15.0938C159.27 14.1172 159.133 13.0391 159.242 11.8594C159.445 9.76562 160.156 8.10156 161.375 6.86719C162.594 5.63281 164.086 5.03906 165.852 5.08594ZM162.512 13.0664C162.527 13.8164 162.703 14.4102 163.039 14.8477C163.375 15.2773 163.848 15.5 164.457 15.5156C165.473 15.5469 166.27 15.082 166.848 14.1211C167.426 13.1523 167.695 11.8828 167.656 10.3125C167.625 9.5625 167.441 8.96484 167.105 8.51953C166.777 8.06641 166.305 7.83203 165.688 7.81641C164.703 7.78516 163.914 8.25 163.32 9.21094C162.734 10.1641 162.465 11.4492 162.512 13.0664ZM177.113 5.30859L176.832 6.80859C177.848 5.62891 179.078 5.05469 180.523 5.08594C181.719 5.10938 182.602 5.54688 183.172 6.39844C183.742 7.25 183.949 8.42969 183.793 9.9375L182.457 18H179.152L180.512 9.90234C180.551 9.59766 180.559 9.32031 180.535 9.07031C180.434 8.27344 179.934 7.86328 179.035 7.83984C178.168 7.80859 177.391 8.21094 176.703 9.04688L175.121 18H171.816L174.02 5.32031L177.113 5.30859Z" fill="#FF0C0C"/>
</svg>
